<?xml version="1.0" encoding="UTF-8"?>
<svg width="306px" height="44px" viewBox="0 0 306 44" version="1.1" xmlns="http://www.w3.org/2000/svg" xmlns:xlink="http://www.w3.org/1999/xlink">
  <!-- Generator: Sketch 50.2 (55047) - http://www.bohemiancoding.com/sketch -->
  <title>SB Logo - stacked, with tag</title>
  <desc>Created with Sketch.</desc>
  <defs>
    <polygon id="path-1" points="0.00902213505 0.126340063 38.6813515 0.126340063 38.6813515 43.6636961 0.00902213505 43.6636961"></polygon>
  </defs>
  <g id="Symbols" stroke="none" stroke-width="1" fill="none" fill-rule="evenodd">
    <g id="Navigation-/-Utility" transform="translate(-133.000000, -29.000000)">
      <g id="Logo-/-Without-Tagline" transform="translate(111.000000, 9.000000)">
        <g id="Logo" transform="translate(22.771084, 20.160000)">
          <path d="M142.763238,31.6596908 C142.763238,33.0860074 143.2953,33.3791022 145.060241,33.488684 L145.060241,34.44 L137.46988,34.44 L137.46988,33.488684 C139.234288,33.3791022 139.766749,33.0860074 139.766749,31.6596908 L139.766749,17.4613976 L137.603261,17.4613976 L137.603261,16.7885654 L142.183037,15.12 L142.763238,15.12 L142.763238,31.6596908" id="Fill-8" fill="#FFFFFE"></path>
          <path d="M95.2827053,32.6296484 C97.7570778,32.6296484 99.4811731,31.4718625 100.755342,29.5304386 L101.204819,29.7542712 C100.080676,33.2638658 97.6441844,35.28 94.1953949,35.28 C89.3601422,35.28 86.0240964,31.5094413 86.0240964,25.8727655 C86.0240964,19.7502491 89.5103174,15.12 95.0952483,15.12 C97.7477948,15.12 100.67973,16.5845306 100.67973,19.6164863 C100.67973,20.7939564 99.6455723,21.413858 98.8750821,21.413858 C98.104592,21.413858 97.1087641,20.8064827 97.1087641,19.6164863 C97.1087641,18.6137876 97.4122588,16.2771895 94.4207325,16.2771895 C91.0469557,16.2771895 89.02251,19.786784 89.02251,24.229288 C89.02251,29.2318956 91.4223189,32.6296484 95.2827053,32.6296484" id="Fill-14" fill="#FFFFFE"></path>
          <path d="M117.984938,31.2707509 C117.984938,32.5446522 118.056834,32.807036 119.67034,32.9944317 L120.60241,33.1060907 L120.60241,33.8933919 L115.331375,35.28 L114.793444,35.28 L114.793444,31.7578 C113.073097,33.5564689 111.172723,35.28 108.662809,35.28 C105.579446,35.28 103.750825,33.5181516 103.750825,29.4354111 L103.750825,19.0547099 C103.750825,17.7059702 103.4641,17.3305801 101.778841,17.1065136 L101.204819,17.0309267 L101.204819,16.1702838 L106.726917,15.12 L107.121056,15.12 L106.941745,19.204836 L106.941745,28.7600683 C106.941745,31.4954161 107.91005,33.0694199 110.132809,33.0694199 C111.996806,33.0694199 113.431145,32.0574534 114.793444,30.9338279 L114.793444,19.0547099 C114.793444,17.7059702 114.542954,17.3305801 112.822464,17.1065136 L112.284103,17.0309267 L112.284103,16.1702838 L117.734448,15.12 L118.128587,15.12 L117.984938,19.0547099 L117.984938,31.2707509" id="Fill-15" fill="#FFFFFE"></path>
          <path d="M128.974126,31.6692668 C128.974126,33.0906708 129.818996,33.3827561 132.243834,33.4919605 L132.243834,34.44 L123.13253,34.44 L123.13253,33.4919605 C125.080267,33.3827561 125.667875,33.0906708 125.667875,31.6692668 L125.667875,17.5411336 L123.280166,17.5475403 L123.280166,16.8493604 L128.333832,15.1865419 L128.974126,15.1865419 L128.974126,20.2964327 C130.994947,16.5780967 131.876946,15.12 133.934162,15.12 C134.935474,15.12 135.783133,15.7035881 135.783133,15.7035881 L135.783133,18.4376287 L134.816308,18.4376287 C132.575208,18.4376287 131.031929,18.6193448 128.974126,21.0985751 L128.974126,31.6692668" id="Fill-17" fill="#FFFFFE"></path>
          <path d="M158.229688,32.0512403 C157.254659,32.8026133 156.495982,33.1407387 155.376718,33.1407387 C153.354542,33.1407387 152.379513,32.0139041 152.379513,29.2357283 L152.379513,17.4802121 L156.889744,17.4802121 L156.889744,16.053788 L152.379513,16.053788 L152.379513,9.24 L151.661222,9.24 C150.893891,12.0813025 149.062105,15.2574316 146.746988,16.6975007 L146.746988,17.4802121 L149.202013,17.4802121 L149.202013,29.7998203 C149.202013,33.8157898 151.188131,35.28 153.788689,35.28 C156.027218,35.28 157.616689,33.9282483 158.554217,32.5012244 L158.229688,32.0512403" id="Fill-18" fill="#FFFFFE"></path>
          <g id="Group-4">
            <mask id="mask-2" fill="white">
              <use xlink:href="#path-1"></use>
            </mask>
            <g id="Clip-2"></g>
            <path d="M30.4217372,13.831386 L31.7140077,11.7778348 L24.7466639,8.08441363 C22.8324675,7.11180521 20.6655011,6.56248102 18.3704203,6.56248102 C15.2337247,6.56248102 12.3371682,7.58790619 9.99848043,9.31960532 L8.81342299,10.226943 C7.39634632,11.2165068 5.59101709,11.2435154 4.18025591,10.4439118 L2.0487765,9.30595099 L9.25114691,3.69627212 C12.1758224,1.45711206 15.8365537,0.126340063 19.808699,0.126340063 C22.7135257,0.126340063 25.731881,0.974859136 28.1376333,2.23315815 L38.6813515,7.81807918 L38.6813515,18.239934 C38.6813515,21.5840445 37.7331251,24.7057844 36.0891417,27.353374 L36.0873373,27.3524737 L14.5172168,15.9117958 L15.0114794,15.1198446 C15.3224423,14.5382602 15.7709928,14.0196958 16.349462,13.616668 C17.6979705,12.6742191 19.3980415,12.6038468 20.7745185,13.2892641 L20.7827888,13.2915148 L24.8792893,15.4630034 C26.2414813,16.1046069 27.9009526,16.0189297 29.2223947,15.0946366 C29.7195143,14.7474265 30.1213001,14.3151394 30.4217372,13.831386" id="Fill-1" fill="#FFFFFE" mask="url(#mask-2)"></path>
            <path d="M8.25961427,29.9586501 L6.96734379,32.0120513 L13.9346876,35.7054725 C15.8490343,36.678231 18.0158504,37.2263548 20.3109312,37.2263548 C23.4476268,37.2263548 26.3443336,36.20213 28.682871,34.4698307 L29.8679285,33.5630931 C31.2851555,32.5733793 33.0903344,32.5465208 34.5010955,33.3461243 L36.6327253,34.4840852 L29.4303549,40.0939141 C26.5044765,42.3327741 22.8449482,43.6636961 18.8722014,43.6636961 C15.9678257,43.6636961 12.9490193,42.815027 10.543267,41.556878 L0,35.971957 L0,25.5501021 C0,22.2059917 0.948226394,19.0842518 2.59236014,16.4365121 L2.59281124,16.4375625 L24.1636836,27.8771901 L23.6700224,28.6701915 C23.3589091,29.251776 22.910509,29.7703404 22.3318894,30.1733682 C20.9829299,31.1158171 19.28331,31.184989 17.9068329,30.500772 L17.8985626,30.4985213 L13.8020622,28.3270327 C12.4398702,27.6860295 10.7803988,27.7712565 9.45895676,28.6955496 C8.96198748,29.0420095 8.56020174,29.4747467 8.25961427,29.9586501" id="Fill-3" fill="#FFFFFE" mask="url(#mask-2)"></path>
          </g>
          <path d="M295.699563,32.0518401 C294.724522,32.8026133 293.965836,33.1407387 292.846558,33.1407387 C290.824358,33.1407387 289.849317,32.0145039 289.849317,29.2363281 L289.849317,17.4808119 L294.359603,17.4808119 L294.359603,16.0548376 L289.849317,16.0548376 L289.849317,9.24 L289.132459,9.24 C288.363677,12.0807027 286.531869,15.2574316 284.216867,16.6970509 L284.216867,17.4808119 L286.671779,17.4808119 L286.671779,29.7998203 C286.671779,33.8163896 288.65792,35.28 291.258511,35.28 C293.497067,35.28 295.086557,33.9288481 296.024096,32.5018242 L295.699563,32.0518401" id="Fill-5" fill="#FFFFFE"></path>
          <path d="M269.274025,32.3777284 L269.274025,17.5573843 L275.285358,17.5573843 L275.285358,16.1071635 L269.274025,16.1071635 L269.274025,13.5550556 C269.274025,9.88962225 271.202499,7.80694114 273.56185,7.80694114 C276.094749,7.80694114 276.916108,9.47891192 276.916108,11.36943 C276.916108,12.7394303 277.94393,13.3901919 278.877497,13.3901919 C279.809568,13.3901919 280.843373,12.6288603 280.843373,11.36943 C280.843373,8.8882394 277.813769,6.72 274.293443,6.72 C269.799156,6.72 265.903309,9.58322899 265.903309,15.1962193 L265.903309,15.8771779 L263.13253,16.815574 L263.13253,17.5573843 L265.903309,17.5573843 L265.903309,32.3777284 C265.903309,33.8666867 265.304869,34.17247 263.319543,34.2870052 L263.319543,35.28 L271.857791,35.28 L271.857791,34.2870052 C269.872465,34.17247 269.274025,33.8666867 269.274025,32.3777284" id="Fill-6" fill="#FFFFFE"></path>
          <path d="M280.233597,31.6595447 L280.233597,15.12 L279.653815,15.12 L277.237612,16.000307 L277.237612,31.6595447 C277.237612,33.0860074 276.704372,33.3789561 274.939759,33.488684 L274.939759,34.44 L282.53012,34.44 L282.53012,33.488684 C280.765508,33.3789561 280.233597,33.0860074 280.233597,31.6595447" id="Fill-7" fill="#FFFFFE"></path>
          <path d="M138.313253,9.23984269 C138.313253,7.86067794 139.428855,6.72 140.823,6.72 C142.257414,6.72 143.373494,7.86067794 143.373494,9.23984269 C143.373494,10.6188501 142.257414,11.76 140.823,11.76 C139.428855,11.76 138.313253,10.6188501 138.313253,9.23984269" id="Fill-9" fill="#FFFFFE"></path>
          <path d="M212.080161,23.38893 L221.07021,23.387737 C221.07021,18.7322976 219.819947,16.315251 217.000361,16.315251 C214.216867,16.315251 212.080161,19.0570957 212.080161,23.38893 M224.084698,22.5117664 L224.084698,24.561812 L212.077273,24.5580838 C212.251964,29.8188287 214.993589,32.778995 218.481618,32.778995 C221.083203,32.778995 222.63809,31.5099263 223.904233,29.4564507 L224.337349,29.6798426 C223.469673,32.9279727 220.976368,35.28 217.216919,35.28 C212.084492,35.28 209.156627,30.9869387 209.156627,25.7600456 C209.156627,19.637348 212.627331,15.12 217.289105,15.12 C221.735765,15.12 224.084698,18.3305501 224.084698,22.5117664" id="Fill-10" fill="#FFFFFE"></path>
          <path d="M250.033412,23.38893 L259.022017,23.387737 C259.022017,18.7322976 257.771755,16.315251 254.952168,16.315251 C252.168675,16.315251 250.033412,19.0570957 250.033412,23.38893 M262.036506,22.5117664 L262.036506,24.561812 L250.029081,24.5580838 C250.203771,29.8188287 252.945396,32.778995 256.434869,32.778995 C259.036454,32.778995 260.591341,31.5099263 261.85604,29.4564507 L262.289157,29.6798426 C261.421481,32.9279727 258.928175,35.28 255.168726,35.28 C250.036299,35.28 247.108434,30.9869387 247.108434,25.7600456 C247.108434,19.637348 250.579138,15.12 255.240912,15.12 C259.687572,15.12 262.036506,18.3305501 262.036506,22.5117664" id="Fill-11" fill="#FFFFFE"></path>
          <path d="M239.761924,21.0624984 C239.761924,18.3646324 238.694232,17.2342603 236.59439,17.2342603 C234.780309,17.2342603 233.03589,18.2548423 231.682438,19.4583107 L231.682438,31.6697657 C231.682438,33.0922319 232.252537,33.3835979 234.139125,33.4929512 L234.139125,34.44 L226.024096,34.44 L226.024096,33.4929512 C227.910684,33.3835979 228.480783,33.0922319 228.480783,31.6697657 L228.480783,17.5422259 L226.166266,17.5481959 L226.166266,16.8494125 L231.062579,15.1865439 L231.682438,15.1865439 L231.682438,18.5826109 C233.355771,16.6873483 235.420071,15.12 238.161096,15.12 C241.435257,15.12 242.965,17.0525388 242.965,20.9889653 L242.965,31.6697657 C242.965,33.0922319 243.535099,33.3835979 245.421687,33.4929512 L245.421687,34.44 L237.306658,34.44 L237.306658,33.4929512 C239.193246,33.3835979 239.761924,33.0922319 239.761924,31.6697657 L239.761924,21.0624984" id="Fill-12" fill="#FFFFFE"></path>
          <path d="M173.511943,20.0123364 C173.66155,19.6021017 173.734132,19.3027452 173.734132,19.0039857 C173.734132,18.1077071 172.993504,17.995635 171.138971,17.7711923 L171.138971,16.8 L177.108434,16.8 L177.108434,17.7711923 C175.73679,18.1077071 175.514602,18.4064667 175.218351,19.1532162 L167.674312,39.4211099 C166.635951,42.1479994 165.523528,43.68 163.2972,43.68 C160.617607,43.68 160.627976,40.7277724 160.627976,40.7277724 C161.25751,40.9144598 161.777431,41.064138 162.77876,41.064138 C164.744387,41.064138 166.078999,40.5031805 166.969234,37.9638738 L167.635799,36.0843152 L160.445781,19.1532162 C160.112499,18.3693083 159.92586,18.1077071 158.554217,17.7711923 L158.554217,16.8 L166.748527,16.8 L166.748527,17.7711923 C164.895475,17.995635 164.153366,18.1077071 164.153366,19.0039857 C164.153366,19.3027452 164.227429,19.6021017 164.377036,20.0494948 L169.15705,32.0488233 L173.511943,20.0123364" id="Fill-13" fill="#FFFFFE"></path>
          <path d="M72.0805052,23.3886853 L81.0698586,23.3874924 C81.0698586,18.7327872 79.8189952,16.3152157 76.9997883,16.3152157 C74.2165306,16.3152157 72.0805052,19.0569792 72.0805052,23.3886853 M84.0835385,22.5115477 L84.0835385,24.5621291 L72.077329,24.5578046 C72.2511563,29.8183938 74.992834,32.779069 78.4820845,32.779069 C81.0841517,32.779069 82.6377691,31.5094413 83.9033587,29.4564739 L84.3373494,29.6794118 C83.4696568,32.9274458 80.9752931,35.28 77.216928,35.28 C72.084259,35.28 69.1566265,30.9864692 69.1566265,25.7597308 C69.1566265,19.6372143 72.6268195,15.12 77.2894041,15.12 C81.7347046,15.12 84.0835385,18.3304551 84.0835385,22.5115477" id="Fill-16" fill="#FFFFFE"></path>
          <path d="M49.8684439,33.8451253 L49.8684439,27.5667285 L50.8586434,27.5667285 C51.642732,32.0455174 54.374188,34.9306833 57.8547581,34.9306833 C62.1783055,34.9306833 63.7260061,32.1635295 63.7260061,29.5044258 C63.7260061,22.2626212 49.7590361,23.2920852 49.7590361,14.0684437 C49.7590361,10.4293798 53.2751786,7.56 57.780325,7.56 C60.4074551,7.56 63.7194297,8.32968408 65.4596399,9.58965478 L65.4596399,14.7339093 L64.4694404,14.7339093 C63.9579743,10.7435679 61.0561292,8.7493167 57.780325,8.7493167 C55.0503635,8.7493167 52.6251594,10.4641704 52.6251594,12.8428038 C52.6251594,20.0770985 66.626506,19.0566771 66.626506,28.2803185 C66.626506,32.6532031 63.0683641,36.12 57.8547581,36.12 C54.7834207,36.12 51.301356,35.1394268 49.8684439,33.8451253" id="Fill-19" fill="#FFFFFE"></path>
          <path d="M197.375302,20.5026999 C200.898849,20.0816738 204.533835,18.051705 204.533835,14.1853803 C204.533835,9.81945763 201.353406,7.56 195.558542,7.56 L185.542169,7.56 L185.542169,8.48017935 C188.008505,8.78364434 188.474792,8.9517583 188.474792,10.873209 L188.474792,31.1272357 C188.474792,33.0482417 188.008505,33.2169487 185.542169,33.5192277 L185.542169,34.44 L196.429532,34.44 C202.488331,34.44 205.783133,31.5292861 205.783133,27.2404527 C205.783133,23.2206906 202.375425,20.6936442 197.375302,20.5026999 Z M194.230064,8.72330714 C198.365063,8.72330714 200.640778,10.7320763 200.640778,14.2494237 C200.640778,18.0402899 198.558616,19.9936141 194.230064,19.9936141 L191.926489,19.9936141 L191.926489,8.72330714 L194.230064,8.72330714 Z M195.787287,33.2762481 L194.992546,33.2718007 C192.838535,33.2452642 191.926489,32.7808011 191.926489,31.0160492 L191.926489,21.11808 L195.246218,21.11808 C199.995601,21.11808 202.076297,23.7883347 202.076297,27.2247383 C202.076297,31.01175 200.073316,33.2762481 195.787287,33.2762481 Z" id="Fill-20" fill="#FFFFFE"></path>
          <path d="M300.171168,11.3667399 L300.171168,12.928687 L300.604667,12.928687 C301.188647,12.928687 301.504797,12.6129421 301.504797,12.1144337 C301.504797,11.6327027 301.188647,11.3667399 300.604667,11.3667399 L300.171168,11.3667399 Z M300.737201,11.0012129 C301.738113,11.0012129 302.272393,11.4830815 302.272393,12.1144337 C302.272393,12.6960039 301.771246,13.0948106 301.271481,13.1945123 L301.938295,14.1083298 C302.188178,14.4572169 302.355227,14.5901983 302.639624,14.5901983 L302.639624,14.9059432 L301.789194,14.9059432 C301.622145,14.7896016 301.354315,14.4904966 301.154133,14.1913916 L300.537019,13.2775741 L300.171168,13.2775741 L300.171168,14.1913916 C300.171168,14.5236388 300.303703,14.5901983 300.654367,14.5901983 L300.654367,14.9059432 L298.93556,14.9059432 L298.93556,14.5901983 C299.302791,14.5901983 299.436706,14.5236388 299.436706,14.1913916 L299.436706,11.7324044 C299.436706,11.3667399 299.302791,11.3502376 298.93556,11.3169578 L298.93556,11.0012129 L300.737201,11.0012129 Z M300.654367,16.2350697 C302.505709,16.2350697 303.840718,14.739682 303.840718,13.0283887 C303.840718,11.300318 302.505709,9.80493033 300.654367,9.80493033 C298.819593,9.80493033 297.484584,11.300318 297.484584,13.0283887 C297.484584,14.739682 298.819593,16.2350697 300.654367,16.2350697 Z M300.654367,9.24 C302.87294,9.24 304.457831,10.934791 304.457831,13.0283887 C304.457831,13.7210747 304.281119,14.3712671 303.963588,14.9302841 C303.329907,16.047218 302.132955,16.8 300.654367,16.8 C298.452362,16.8 296.86747,15.105209 296.86747,13.0283887 C296.86747,10.934791 298.452362,9.24 300.654367,9.24 Z" id="Fill-21" fill="#FFFFFE"></path>
        </g>
      </g>
    </g>
  </g>
</svg>
